<?xml version="1.0" encoding="UTF-8" standalone="no"?>
<!DOCTYPE svg PUBLIC "-//W3C//DTD SVG 1.1//EN"
 "http://www.w3.org/Graphics/SVG/1.1/DTD/svg11.dtd">
<!-- Generated by graphviz version 2.43.0 (0)
 -->
<!-- Title: OPT Pages: 1 -->
<svg width="994pt" height="146pt"
 viewBox="0.00 0.00 993.87 146.00" xmlns="http://www.w3.org/2000/svg" xmlns:xlink="http://www.w3.org/1999/xlink">
<g id="graph0" class="graph" transform="scale(1 1) rotate(0) translate(4 142)">
<title>OPT</title>
<polygon fill="white" stroke="transparent" points="-4,4 -4,-142 989.87,-142 989.87,4 -4,4"/>
<!-- N0 -->
<g id="node1" class="node">
<title>N0</title>
<path fill="#dbeafe" stroke="black" d="M114.5,-138C114.5,-138 31.5,-138 31.5,-138 25.5,-138 19.5,-132 19.5,-126 19.5,-126 19.5,-114 19.5,-114 19.5,-108 25.5,-102 31.5,-102 31.5,-102 114.5,-102 114.5,-102 120.5,-102 126.5,-108 126.5,-114 126.5,-114 126.5,-126 126.5,-126 126.5,-132 120.5,-138 114.5,-138"/>
<text text-anchor="middle" x="73" y="-123.2" font-family="DejaVu Sans" font-size="11.00">N0 / L0 / piece 6</text>
<text text-anchor="middle" x="73" y="-111.2" font-family="DejaVu Sans" font-size="11.00">x=0, V=5</text>
</g>
<!-- N1 -->
<g id="node2" class="node">
<title>N1</title>
<path fill="#f8fafc" stroke="black" d="M407,-93C407,-93 324,-93 324,-93 318,-93 312,-87 312,-81 312,-81 312,-61 312,-61 312,-55 318,-49 324,-49 324,-49 407,-49 407,-49 413,-49 419,-55 419,-61 419,-61 419,-81 419,-81 419,-87 413,-93 407,-93"/>
<text text-anchor="middle" x="365.5" y="-80.2" font-family="DejaVu Sans" font-size="11.00">N1 / L1 / piece 4</text>
<text text-anchor="middle" x="365.5" y="-68.2" font-family="DejaVu Sans" font-size="11.00">0 &lt;= x &lt;= 5</text>
<text text-anchor="middle" x="365.5" y="-56.2" font-family="DejaVu Sans" font-size="11.00">V(x)=5&#45;x</text>
</g>
<!-- N0&#45;&gt;N1 -->
<g id="edge1" class="edge">
<title>N0&#45;&gt;N1</title>
<path fill="none" stroke="#2563eb" stroke-width="3" d="M126.61,-111.13C175.81,-102.83 249.36,-90.42 301.64,-81.6"/>
<polygon fill="#2563eb" stroke="#2563eb" stroke-width="3" points="302.52,-85 311.79,-79.89 301.35,-78.1 302.52,-85"/>
<text text-anchor="middle" x="229" y="-115" font-family="DejaVu Sans" font-size="10.00">arc 0 / e(0,0)</text>
<text text-anchor="middle" x="229" y="-104" font-family="DejaVu Sans" font-size="10.00">bits:0, reset x, d=0</text>
</g>
<!-- B5 -->
<g id="node3" class="node">
<title>B5</title>
<path fill="#fef3c7" stroke="black" d="M600.63,-95.5C600.63,-95.5 579.37,-78.5 579.37,-78.5 574.69,-74.75 574.69,-67.25 579.37,-63.5 579.37,-63.5 600.63,-46.5 600.63,-46.5 605.31,-42.75 614.69,-42.75 619.37,-46.5 619.37,-46.5 640.63,-63.5 640.63,-63.5 645.31,-67.25 645.31,-74.75 640.63,-78.5 640.63,-78.5 619.37,-95.5 619.37,-95.5 614.69,-99.25 605.31,-99.25 600.63,-95.5"/>
<text text-anchor="middle" x="610" y="-74.2" font-family="DejaVu Sans" font-size="11.00">x=5</text>
<text text-anchor="middle" x="610" y="-62.2" font-family="DejaVu Sans" font-size="11.00">V=0</text>
</g>
<!-- N1&#45;&gt;B5 -->
<g id="edge2" class="edge">
<title>N1&#45;&gt;B5</title>
<path fill="none" stroke="#f59e0b" stroke-width="3" d="M419.12,-71C460.85,-71 518.77,-71 559.63,-71"/>
<polygon fill="#f59e0b" stroke="#f59e0b" stroke-width="3" points="559.63,-74.5 569.63,-71 559.63,-67.5 559.63,-74.5"/>
<text text-anchor="middle" x="494.5" y="-85" font-family="DejaVu Sans" font-size="10.00">delay d=5&#45;x</text>
<text text-anchor="middle" x="494.5" y="-74" font-family="DejaVu Sans" font-size="10.00">cost=d (rate=1)</text>
</g>
<!-- G -->
<g id="node4" class="node">
<title>G</title>
<ellipse fill="#dcfce7" stroke="black" cx="918.93" cy="-71" rx="62.87" ry="62.87"/>
<ellipse fill="none" stroke="black" cx="918.93" cy="-71" rx="66.87" ry="66.87"/>
<text text-anchor="middle" x="918.93" y="-74.2" font-family="DejaVu Sans" font-size="11.00">N3 / L4 GOAL</text>
<text text-anchor="middle" x="918.93" y="-62.2" font-family="DejaVu Sans" font-size="11.00">piece 1, V=0</text>
</g>
<!-- B5&#45;&gt;G -->
<g id="edge3" class="edge">
<title>B5&#45;&gt;G</title>
<path fill="none" stroke="#dc2626" stroke-width="3" d="M650.18,-71C698.23,-71 780.76,-71 841.52,-71"/>
<polygon fill="#dc2626" stroke="#dc2626" stroke-width="3" points="841.84,-74.5 851.84,-71 841.84,-67.5 841.84,-74.5"/>
<text text-anchor="middle" x="751" y="-85" font-family="DejaVu Sans" font-size="10.00">arc 6 / e(1,5)</text>
<text text-anchor="middle" x="751" y="-74" font-family="DejaVu Sans" font-size="10.00">bits:1, 5&lt;=x&lt;=10, reset x</text>
</g>
<!-- P0 -->
<g id="node5" class="node">
<title>P0</title>
<polygon fill="#ffffff" stroke="black" points="140,-44 0,-44 0,0 146,0 146,-38 140,-44"/>
<polyline fill="none" stroke="black" points="140,-44 140,-38 "/>
<polyline fill="none" stroke="black" points="146,-38 140,-38 "/>
<text text-anchor="middle" x="73" y="-31.2" font-family="DejaVu Sans" font-size="11.00">prefix1: x=0, d=5, V=5</text>
<text text-anchor="middle" x="73" y="-19.2" font-family="DejaVu Sans" font-size="11.00">prefix2: x=1, d=4, V=4</text>
<text text-anchor="middle" x="73" y="-7.2" font-family="DejaVu Sans" font-size="11.00">prefix3: x=3, d=2, V=2</text>
</g>
<!-- P0&#45;&gt;N1 -->
<g id="edge4" class="edge">
<title>P0&#45;&gt;N1</title>
<path fill="none" stroke="black" stroke-dasharray="1,5" d="M146.18,-34.18C197.6,-42.85 265.54,-54.31 311.89,-62.13"/>
</g>
</g>
</svg>
